<mxfile host="Electron" agent="Mozilla/5.0 (Windows NT 10.0; Win64; x64) AppleWebKit/537.36 (KHTML, like Gecko) draw.io/24.7.5 Chrome/126.0.6478.183 Electron/31.3.0 Safari/537.36" version="24.7.5">
  <diagram name="Page-1" id="I4uiNRPLNgD0PlAr5rib">
    <mxGraphModel dx="757" dy="819" grid="1" gridSize="10" guides="1" tooltips="1" connect="1" arrows="1" fold="1" page="1" pageScale="1" pageWidth="827" pageHeight="1169" math="0" shadow="0">
      <root>
        <mxCell id="0" />
        <mxCell id="1" parent="0" />
        <mxCell id="4I-1qODUvjV4ys5KMT1I-1" value="Agent" style="swimlane;whiteSpace=wrap;html=1;" vertex="1" parent="1">
          <mxGeometry width="200" height="560" as="geometry" />
        </mxCell>
        <mxCell id="4I-1qODUvjV4ys5KMT1I-2" value="Module Engine" style="swimlane;whiteSpace=wrap;html=1;" vertex="1" parent="1">
          <mxGeometry x="200" width="200" height="560" as="geometry" />
        </mxCell>
        <mxCell id="4I-1qODUvjV4ys5KMT1I-4" value="Link Library" style="swimlane;whiteSpace=wrap;html=1;" vertex="1" parent="1">
          <mxGeometry x="400" width="200" height="560" as="geometry" />
        </mxCell>
        <mxCell id="4I-1qODUvjV4ys5KMT1I-5" value="Hardware" style="swimlane;whiteSpace=wrap;html=1;" vertex="1" parent="1">
          <mxGeometry x="600" width="200" height="560" as="geometry" />
        </mxCell>
      </root>
    </mxGraphModel>
  </diagram>
</mxfile>
